<svg width="16" height="14" viewBox="0 0 16 14" fill="none" xmlns="http://www.w3.org/2000/svg">
<path fill-rule="evenodd" clip-rule="evenodd" d="M8.293 0.293031C8.48053 0.105559 8.73484 0.000244141 9 0.000244141C9.26516 0.000244141 9.51947 0.105559 9.707 0.293031L15.707 6.29303C15.8945 6.48056 15.9998 6.73487 15.9998 7.00003C15.9998 7.26519 15.8945 7.5195 15.707 7.70703L9.707 13.707C9.5184 13.8892 9.2658 13.99 9.0036 13.9877C8.7414 13.9854 8.49059 13.8803 8.30518 13.6948C8.11977 13.5094 8.0146 13.2586 8.01233 12.9964C8.01005 12.7342 8.11084 12.4816 8.293 12.293L12.586 8.00003H1C0.734784 8.00003 0.48043 7.89467 0.292893 7.70714C0.105357 7.5196 0 7.26525 0 7.00003C0 6.73481 0.105357 6.48046 0.292893 6.29292C0.48043 6.10539 0.734784 6.00003 1 6.00003H12.586L8.293 1.70703C8.10553 1.5195 8.00021 1.26519 8.00021 1.00003C8.00021 0.734866 8.10553 0.480558 8.293 0.293031Z" fill="white"/>
</svg>
