<svg width="24" height="24" viewBox="0 0 24 24" fill="none" xmlns="http://www.w3.org/2000/svg">
<path d="M10.8 2.3999C10.4817 2.3999 10.1765 2.52633 9.95145 2.75137C9.7264 2.97642 9.59998 3.28164 9.59998 3.5999C9.59998 3.91816 9.7264 4.22339 9.95145 4.44843C10.1765 4.67347 10.4817 4.7999 10.8 4.7999H13.2C13.5182 4.7999 13.8235 4.67347 14.0485 4.44843C14.2735 4.22339 14.4 3.91816 14.4 3.5999C14.4 3.28164 14.2735 2.97642 14.0485 2.75137C13.8235 2.52633 13.5182 2.3999 13.2 2.3999H10.8Z" fill="#1C64F2"/>
<path fill-rule="evenodd" clip-rule="evenodd" d="M4.80005 6.0001C4.80005 5.36358 5.05291 4.75313 5.50299 4.30304C5.95308 3.85295 6.56353 3.6001 7.20005 3.6001C7.20005 4.55488 7.57933 5.47055 8.25446 6.14568C8.9296 6.82081 9.84527 7.2001 10.8 7.2001H13.2C14.1548 7.2001 15.0705 6.82081 15.7456 6.14568C16.4208 5.47055 16.8 4.55488 16.8 3.6001C17.4366 3.6001 18.047 3.85295 18.4971 4.30304C18.9472 4.75313 19.2 5.36358 19.2 6.0001V19.2001C19.2 19.8366 18.9472 20.4471 18.4971 20.8972C18.047 21.3472 17.4366 21.6001 16.8 21.6001H7.20005C6.56353 21.6001 5.95308 21.3472 5.50299 20.8972C5.05291 20.4471 4.80005 19.8366 4.80005 19.2001V6.0001ZM8.40005 10.8001C8.08179 10.8001 7.77656 10.9265 7.55152 11.1516C7.32648 11.3766 7.20005 11.6818 7.20005 12.0001C7.20005 12.3184 7.32648 12.6236 7.55152 12.8486C7.77656 13.0737 8.08179 13.2001 8.40005 13.2001H8.41205C8.73031 13.2001 9.03553 13.0737 9.26058 12.8486C9.48562 12.6236 9.61205 12.3184 9.61205 12.0001C9.61205 11.6818 9.48562 11.3766 9.26058 11.1516C9.03553 10.9265 8.73031 10.8001 8.41205 10.8001H8.40005ZM12 10.8001C11.6818 10.8001 11.3766 10.9265 11.1515 11.1516C10.9265 11.3766 10.8 11.6818 10.8 12.0001C10.8 12.3184 10.9265 12.6236 11.1515 12.8486C11.3766 13.0737 11.6818 13.2001 12 13.2001H15.6C15.9183 13.2001 16.2235 13.0737 16.4486 12.8486C16.6736 12.6236 16.8 12.3184 16.8 12.0001C16.8 11.6818 16.6736 11.3766 16.4486 11.1516C16.2235 10.9265 15.9183 10.8001 15.6 10.8001H12ZM8.40005 15.6001C8.08179 15.6001 7.77656 15.7265 7.55152 15.9516C7.32648 16.1766 7.20005 16.4818 7.20005 16.8001C7.20005 17.1184 7.32648 17.4236 7.55152 17.6486C7.77656 17.8737 8.08179 18.0001 8.40005 18.0001H8.41205C8.73031 18.0001 9.03553 17.8737 9.26058 17.6486C9.48562 17.4236 9.61205 17.1184 9.61205 16.8001C9.61205 16.4818 9.48562 16.1766 9.26058 15.9516C9.03553 15.7265 8.73031 15.6001 8.41205 15.6001H8.40005ZM12 15.6001C11.6818 15.6001 11.3766 15.7265 11.1515 15.9516C10.9265 16.1766 10.8 16.4818 10.8 16.8001C10.8 17.1184 10.9265 17.4236 11.1515 17.6486C11.3766 17.8737 11.6818 18.0001 12 18.0001H15.6C15.9183 18.0001 16.2235 17.8737 16.4486 17.6486C16.6736 17.4236 16.8 17.1184 16.8 16.8001C16.8 16.4818 16.6736 16.1766 16.4486 15.9516C16.2235 15.7265 15.9183 15.6001 15.6 15.6001H12Z" fill="#1C64F2"/>
</svg>
