<svg width="18" height="19" viewBox="0 0 18 19" fill="none" xmlns="http://www.w3.org/2000/svg">
<path d="M15.2378 3.6168C14.0905 3.09039 12.8602 2.70255 11.5739 2.48042C11.5505 2.47614 11.5271 2.48685 11.515 2.50828C11.3568 2.78969 11.1815 3.15681 11.0588 3.44537C9.6753 3.23824 8.29889 3.23824 6.94374 3.44537C6.82099 3.1504 6.63936 2.78969 6.48043 2.50828C6.46836 2.48757 6.44496 2.47685 6.42154 2.48042C5.13593 2.70184 3.90567 3.08968 2.7577 3.6168C2.74776 3.62109 2.73924 3.62824 2.73359 3.63751C0.400044 7.12379 -0.239213 10.5244 0.0743851 13.8828C0.075804 13.8992 0.0850274 13.9149 0.0977985 13.9249C1.63741 15.0556 3.12878 15.742 4.59246 16.197C4.61588 16.2041 4.6407 16.1955 4.65561 16.1762C5.00184 15.7034 5.31048 15.2049 5.57511 14.6806C5.59072 14.6499 5.57582 14.6135 5.5439 14.6013C5.05435 14.4156 4.5882 14.1892 4.1398 13.9321C4.10433 13.9114 4.10149 13.8606 4.13412 13.8363C4.22848 13.7656 4.32286 13.6921 4.41297 13.6178C4.42927 13.6042 4.45198 13.6014 4.47115 13.6099C7.41696 14.9549 10.6062 14.9549 13.5172 13.6099C13.5364 13.6006 13.5591 13.6035 13.5761 13.6171C13.6662 13.6914 13.7606 13.7656 13.8557 13.8363C13.8883 13.8606 13.8862 13.9114 13.8507 13.9321C13.4023 14.1942 12.9361 14.4156 12.4459 14.6006C12.414 14.6128 12.3998 14.6499 12.4154 14.6806C12.6857 15.2041 12.9943 15.7027 13.3342 16.1755C13.3484 16.1955 13.3739 16.2041 13.3973 16.197C14.8681 15.742 16.3595 15.0556 17.8991 13.9249C17.9126 13.9149 17.9211 13.8999 17.9225 13.8835C18.2978 10.0008 17.2939 6.6281 15.2612 3.63822C15.2562 3.62824 15.2477 3.62109 15.2378 3.6168ZM6.01502 11.8379C5.12812 11.8379 4.39735 11.0236 4.39735 10.0237C4.39735 9.0237 5.11395 8.20946 6.01502 8.20946C6.92315 8.20946 7.64686 9.03085 7.63266 10.0237C7.63266 11.0236 6.91606 11.8379 6.01502 11.8379ZM11.9961 11.8379C11.1092 11.8379 10.3784 11.0236 10.3784 10.0237C10.3784 9.0237 11.095 8.20946 11.9961 8.20946C12.9042 8.20946 13.6279 9.03085 13.6137 10.0237C13.6137 11.0236 12.9042 11.8379 11.9961 11.8379Z" fill="#5865F2"/>
</svg>
