<svg width="32" height="8" viewBox="0 0 32 8" fill="none" xmlns="http://www.w3.org/2000/svg">
<path d="M7.5 4C7.5 4.92826 7.13125 5.8185 6.47487 6.47487C5.8185 7.13125 4.92826 7.5 4 7.5C3.07174 7.5 2.1815 7.13125 1.52513 6.47487C0.868749 5.8185 0.5 4.92826 0.5 4C0.5 3.07174 0.868749 2.1815 1.52513 1.52513C2.1815 0.86875 3.07174 0.5 4 0.5C4.92826 0.5 5.8185 0.86875 6.47487 1.52513C7.13125 2.1815 7.5 3.07174 7.5 4ZM19.5 4C19.5 4.92826 19.1313 5.8185 18.4749 6.47487C17.8185 7.13125 16.9283 7.5 16 7.5C15.0717 7.5 14.1815 7.13125 13.5251 6.47487C12.8687 5.8185 12.5 4.92826 12.5 4C12.5 3.07174 12.8687 2.1815 13.5251 1.52513C14.1815 0.868749 15.0717 0.5 16 0.5C16.9283 0.5 17.8185 0.86875 18.4749 1.52513C19.1313 2.1815 19.5 3.07174 19.5 4ZM30.4749 6.47487C29.8185 7.13125 28.9283 7.5 28 7.5C27.0717 7.5 26.1815 7.13125 25.5251 6.47487C24.8687 5.8185 24.5 4.92826 24.5 4C24.5 3.07174 24.8687 2.1815 25.5251 1.52513C26.1815 0.86875 27.0717 0.5 28 0.5C28.9283 0.5 29.8185 0.86875 30.4749 1.52513C31.1313 2.1815 31.5 3.07174 31.5 4C31.5 4.92826 31.1313 5.8185 30.4749 6.47487Z" fill="#6B7280" stroke="#6B7280"/>
</svg>
