<svg width="16" height="15" viewBox="0 0 16 15" fill="none" xmlns="http://www.w3.org/2000/svg">
<path d="M5.33398 11.9258C5.33398 11.8672 5.27539 11.8086 5.1875 11.8086C5.09961 11.8086 5.04102 11.8672 5.04102 11.9258C5.04102 11.9844 5.09961 12.043 5.1875 12.0137C5.27539 12.0137 5.33398 11.9844 5.33398 11.9258ZM4.42578 11.7793C4.42578 11.8379 4.48438 11.9258 4.57227 11.9258C4.63086 11.9551 4.71875 11.9258 4.74805 11.8672C4.74805 11.8086 4.71875 11.75 4.63086 11.7207C4.54297 11.6914 4.45508 11.7207 4.42578 11.7793ZM5.74414 11.75C5.65625 11.75 5.59766 11.8086 5.59766 11.8965C5.59766 11.9551 5.68555 11.9844 5.77344 11.9551C5.86133 11.9258 5.91992 11.8965 5.89062 11.8379C5.89062 11.7793 5.80273 11.7207 5.74414 11.75ZM7.64844 0.5C3.60547 0.5 0.5 3.60547 0.5 7.64844C0.5 10.9004 2.52148 13.6836 5.45117 14.6797C5.83203 14.7383 5.94922 14.5039 5.94922 14.3281C5.94922 14.123 5.94922 13.127 5.94922 12.5117C5.94922 12.5117 3.89844 12.9512 3.45898 11.6328C3.45898 11.6328 3.13672 10.7832 2.66797 10.5781C2.66797 10.5781 1.99414 10.1094 2.69727 10.1094C2.69727 10.1094 3.42969 10.168 3.83984 10.8711C4.48438 12.0137 5.53906 11.6914 5.97852 11.4863C6.03711 11.0176 6.21289 10.6953 6.44727 10.4902C4.80664 10.3145 3.13672 10.0801 3.13672 7.26758C3.13672 6.44727 3.37109 6.06641 3.83984 5.53906C3.75195 5.33398 3.51758 4.57227 3.92773 3.54688C4.51367 3.37109 5.94922 4.33789 5.94922 4.33789C6.53516 4.16211 7.15039 4.10352 7.76562 4.10352C8.41016 4.10352 9.02539 4.16211 9.61133 4.33789C9.61133 4.33789 11.0176 3.3418 11.6328 3.54688C12.043 4.57227 11.7793 5.33398 11.7207 5.53906C12.1895 6.06641 12.4824 6.44727 12.4824 7.26758C12.4824 10.0801 10.7539 10.3145 9.11328 10.4902C9.37695 10.7246 9.61133 11.1641 9.61133 11.8672C9.61133 12.834 9.58203 14.0645 9.58203 14.2988C9.58203 14.5039 9.72852 14.7383 10.1094 14.6504C13.0391 13.6836 15.0312 10.9004 15.0312 7.64844C15.0312 3.60547 11.7207 0.5 7.64844 0.5ZM3.3418 10.6074C3.2832 10.6367 3.3125 10.7246 3.3418 10.7832C3.40039 10.8125 3.45898 10.8418 3.51758 10.8125C3.54688 10.7832 3.54688 10.6953 3.48828 10.6367C3.42969 10.6074 3.37109 10.5781 3.3418 10.6074ZM3.01953 10.373C2.99023 10.4316 3.01953 10.4609 3.07812 10.4902C3.13672 10.5195 3.19531 10.5195 3.22461 10.4609C3.22461 10.4316 3.19531 10.4023 3.13672 10.373C3.07812 10.3438 3.04883 10.3438 3.01953 10.373ZM3.95703 11.4277C3.92773 11.457 3.92773 11.5449 4.01562 11.6035C4.07422 11.6621 4.16211 11.6914 4.19141 11.6328C4.2207 11.6035 4.2207 11.5156 4.16211 11.457C4.10352 11.3984 4.01562 11.3691 3.95703 11.4277ZM3.63477 10.9883C3.57617 11.0176 3.57617 11.1055 3.63477 11.1641C3.69336 11.2227 3.75195 11.252 3.81055 11.2227C3.83984 11.1934 3.83984 11.1055 3.81055 11.0469C3.75195 10.9883 3.69336 10.959 3.63477 10.9883Z" fill="#1F2A37"/>
</svg>
