<svg width="16" height="15" viewBox="0 0 16 15" fill="none" xmlns="http://www.w3.org/2000/svg">
<path d="M1.33331 7.50016H14.6666M1.33331 7.50016C1.33331 11.1821 4.31808 14.1668 7.99998 14.1668M1.33331 7.50016C1.33331 3.81826 4.31808 0.833496 7.99998 0.833496M14.6666 7.50016C14.6666 11.1821 11.6819 14.1668 7.99998 14.1668M14.6666 7.50016C14.6666 3.81826 11.6819 0.833496 7.99998 0.833496M7.99998 0.833496C9.6675 2.65906 10.6151 5.02819 10.6666 7.50016C10.6151 9.97214 9.6675 12.3413 7.99998 14.1668M7.99998 0.833496C6.33246 2.65906 5.38481 5.02819 5.33331 7.50016C5.38481 9.97214 6.33246 12.3413 7.99998 14.1668" stroke="#374151" stroke-width="1.5" stroke-linecap="round" stroke-linejoin="round"/>
</svg>
