<svg width="32" height="32" viewBox="0 0 32 32" fill="none" xmlns="http://www.w3.org/2000/svg">
<path opacity="0.12" d="M18.4469 16.9536C17.5653 17.5707 17.1245 17.8792 16.6451 17.9988C16.2216 18.1043 15.7786 18.1043 15.3551 17.9988C14.8756 17.8792 14.4349 17.5707 13.5533 16.9536L2.66675 9.33301C2.66675 7.12387 4.45761 5.33301 6.66675 5.33301H25.3334C27.5426 5.33301 29.3334 7.12387 29.3334 9.33301L18.4469 16.9536Z" fill="white"/>
<path d="M28.6667 23.9997L19.8096 15.9997M12.1906 15.9997L3.33346 23.9997M2.66675 9.33301L13.5533 16.9536C14.4349 17.5707 14.8757 17.8792 15.3551 17.9988C15.7786 18.1043 16.2216 18.1043 16.6451 17.9988C17.1245 17.8792 17.5653 17.5707 18.4469 16.9536L29.3334 9.33301M9.06675 26.6663H22.9334C25.1736 26.6663 26.2937 26.6663 27.1494 26.2304C27.902 25.8469 28.5139 25.235 28.8974 24.4823C29.3334 23.6267 29.3334 22.5066 29.3334 20.2663V11.733C29.3334 9.4928 29.3334 8.37269 28.8974 7.51705C28.5139 6.7644 27.902 6.15248 27.1494 5.76898C26.2937 5.33301 25.1736 5.33301 22.9334 5.33301H9.06675C6.82654 5.33301 5.70643 5.33301 4.85079 5.76898C4.09814 6.15248 3.48622 6.7644 3.10272 7.51705C2.66675 8.37269 2.66675 9.4928 2.66675 11.733V20.2663C2.66675 22.5066 2.66675 23.6267 3.10272 24.4823C3.48622 25.235 4.09814 25.8469 4.85079 26.2304C5.70643 26.6663 6.82654 26.6663 9.06675 26.6663Z" stroke="white" stroke-width="2" stroke-linecap="round" stroke-linejoin="round"/>
</svg>
