<svg width="32" height="32" viewBox="0 0 32 32" fill="none" xmlns="http://www.w3.org/2000/svg">
<path opacity="0.12" d="M29.3333 18.9337C29.3333 17.4402 29.3333 16.6934 29.0426 16.123C28.7869 15.6213 28.379 15.2133 27.8772 14.9576C27.3068 14.667 26.5601 14.667 25.0666 14.667H17.5999C16.1064 14.667 15.3597 14.667 14.7893 14.9576C14.2875 15.2133 13.8796 15.6213 13.6239 16.123C13.3333 16.6934 13.3333 17.4402 13.3333 18.9337V22.286C13.3333 23.7795 13.3333 24.5262 13.6239 25.0967C13.8796 25.5984 14.2875 26.0064 14.7893 26.2621C15.3597 26.5527 16.1064 26.5527 17.5999 26.5527H19.9958C20.4926 26.5527 20.741 26.5527 20.9807 26.5969C21.1934 26.6361 21.4005 26.701 21.5975 26.7902C21.8195 26.8908 22.0235 27.0326 22.4314 27.3162L25.3333 29.3337V26.5527C26.5758 26.5527 27.197 26.5527 27.6871 26.3497C28.3405 26.0791 28.8596 25.5599 29.1303 24.9065C29.3333 24.4165 29.3333 23.7952 29.3333 22.5527V18.9337Z" fill="white"/>
<path d="M13.3334 20.0003L9.23307 24.1519C8.66113 24.731 8.37516 25.0206 8.12935 25.041C7.9161 25.0587 7.7073 24.973 7.56803 24.8105C7.40749 24.6233 7.40749 24.2163 7.40749 23.4024V21.3225C7.40749 20.5923 6.80951 20.0639 6.08702 19.9581V19.9581C4.33841 19.702 2.96512 18.3287 2.70898 16.5801C2.66675 16.2917 2.66675 15.9477 2.66675 15.2596V9.06699C2.66675 6.82678 2.66675 5.70668 3.10272 4.85103C3.48622 4.09838 4.09814 3.48646 4.85079 3.10297C5.70643 2.66699 6.82654 2.66699 9.06675 2.66699H18.9334C21.1736 2.66699 22.2937 2.66699 23.1494 3.10297C23.902 3.48646 24.5139 4.09838 24.8974 4.85103C25.3334 5.70668 25.3334 6.82678 25.3334 9.06699V14.667M25.3334 29.3337L22.4315 27.3162C22.0236 27.0326 21.8197 26.8908 21.5977 26.7902C21.4007 26.701 21.1935 26.6361 20.9808 26.5969C20.7412 26.5527 20.4928 26.5527 19.996 26.5527H17.6001C16.1066 26.5527 15.3599 26.5527 14.7894 26.2621C14.2877 26.0064 13.8797 25.5984 13.6241 25.0967C13.3334 24.5263 13.3334 23.7795 13.3334 22.286V18.9337C13.3334 17.4402 13.3334 16.6934 13.6241 16.123C13.8797 15.6213 14.2877 15.2133 14.7894 14.9576C15.3599 14.667 16.1066 14.667 17.6001 14.667H25.0667C26.5602 14.667 27.307 14.667 27.8774 14.9576C28.3792 15.2133 28.7871 15.6213 29.0428 16.123C29.3334 16.6934 29.3334 17.4402 29.3334 18.9337V22.5527C29.3334 23.7952 29.3334 24.4165 29.1304 24.9065C28.8598 25.5599 28.3406 26.0791 27.6872 26.3497C27.1972 26.5527 26.5759 26.5527 25.3334 26.5527V29.3337Z" stroke="white" stroke-width="2" stroke-linecap="round" stroke-linejoin="round"/>
</svg>
