<svg width="32" height="32" viewBox="0 0 32 32" fill="none" xmlns="http://www.w3.org/2000/svg">
<path opacity="0.12" d="M29.3333 18.9337C29.3333 17.4402 29.3333 16.6934 29.0427 16.123C28.787 15.6213 28.3791 15.2133 27.8773 14.9576C27.3069 14.667 26.5602 14.667 25.0667 14.667H17.6C16.1065 14.667 15.3598 14.667 14.7894 14.9576C14.2876 15.2133 13.8797 15.6213 13.624 16.123C13.3333 16.6934 13.3333 17.4402 13.3333 18.9337V22.286C13.3333 23.7795 13.3333 24.5262 13.624 25.0967C13.8797 25.5984 14.2876 26.0064 14.7894 26.2621C15.3598 26.5527 16.1065 26.5527 17.6 26.5527H19.9959C20.4927 26.5527 20.7411 26.5527 20.9808 26.5969C21.1935 26.6361 21.4006 26.701 21.5976 26.7902C21.8196 26.8908 22.0236 27.0326 22.4315 27.3162L25.3333 29.3337V26.5527C26.5759 26.5527 27.1971 26.5527 27.6872 26.3497C28.3406 26.0791 28.8597 25.5599 29.1304 24.9065C29.3333 24.4165 29.3333 23.7952 29.3333 22.5527V18.9337Z" fill="#1C64F2"/>
<path d="M13.3333 20.0003L9.23298 24.1519C8.66104 24.731 8.37506 25.0206 8.12926 25.041C7.91601 25.0587 7.70721 24.973 7.56793 24.8105C7.4074 24.6233 7.4074 24.2163 7.4074 23.4024V21.3225C7.4074 20.5923 6.80942 20.0639 6.08693 19.9581V19.9581C4.33831 19.702 2.96502 18.3287 2.70889 16.5801C2.66666 16.2917 2.66666 15.9477 2.66666 15.2596V9.06699C2.66666 6.82678 2.66666 5.70668 3.10263 4.85103C3.48612 4.09838 4.09805 3.48646 4.85069 3.10297C5.70634 2.66699 6.82645 2.66699 9.06666 2.66699H18.9333C21.1735 2.66699 22.2936 2.66699 23.1493 3.10297C23.9019 3.48646 24.5139 4.09838 24.8973 4.85103C25.3333 5.70668 25.3333 6.82678 25.3333 9.06699V14.667M25.3333 29.3337L22.4314 27.3162C22.0235 27.0326 21.8196 26.8908 21.5976 26.7902C21.4006 26.701 21.1934 26.6361 20.9808 26.5969C20.7411 26.5527 20.4927 26.5527 19.9959 26.5527H17.6C16.1065 26.5527 15.3598 26.5527 14.7893 26.2621C14.2876 26.0064 13.8796 25.5984 13.624 25.0967C13.3333 24.5263 13.3333 23.7795 13.3333 22.286V18.9337C13.3333 17.4402 13.3333 16.6934 13.624 16.123C13.8796 15.6213 14.2876 15.2133 14.7893 14.9576C15.3598 14.667 16.1065 14.667 17.6 14.667H25.0667C26.5601 14.667 27.3069 14.667 27.8773 14.9576C28.3791 15.2133 28.787 15.6213 29.0427 16.123C29.3333 16.6934 29.3333 17.4402 29.3333 18.9337V22.5527C29.3333 23.7952 29.3333 24.4165 29.1303 24.9065C28.8597 25.5599 28.3406 26.0791 27.6871 26.3497C27.1971 26.5527 26.5758 26.5527 25.3333 26.5527V29.3337Z" stroke="#1C64F2" stroke-width="2" stroke-linecap="round" stroke-linejoin="round"/>
</svg>
