<svg width="24" height="24" viewBox="0 0 24 24" fill="none" xmlns="http://www.w3.org/2000/svg">
<path d="M13.0728 3.06369C12.9731 2.86463 12.8199 2.69725 12.6304 2.58029C12.441 2.46332 12.2227 2.40137 12 2.40137C11.7774 2.40137 11.5591 2.46332 11.3696 2.58029C11.1802 2.69725 11.027 2.86463 10.9272 3.06369L2.52723 19.8637C2.42301 20.072 2.38165 20.3061 2.40822 20.5375C2.43479 20.7689 2.52814 20.9876 2.67686 21.1669C2.82559 21.3461 3.02327 21.4782 3.2458 21.5471C3.46832 21.6159 3.70607 21.6185 3.93003 21.5545L9.93003 19.8397C10.1808 19.768 10.4014 19.6165 10.5584 19.4082C10.7153 19.1999 10.8002 18.9461 10.8 18.6853V13.2001C10.8 12.8818 10.9265 12.5766 11.1515 12.3516C11.3765 12.1265 11.6818 12.0001 12 12.0001C12.3183 12.0001 12.6235 12.1265 12.8486 12.3516C13.0736 12.5766 13.2 12.8818 13.2 13.2001V18.6853C13.1999 18.9461 13.2847 19.1999 13.4417 19.4082C13.5987 19.6165 13.8193 19.768 14.07 19.8397L20.07 21.5533C20.2939 21.6174 20.5316 21.615 20.7542 21.5463C20.9767 21.4776 21.1745 21.3457 21.3233 21.1666C21.4722 20.9875 21.5657 20.7689 21.5924 20.5375C21.6192 20.3062 21.5781 20.0721 21.474 19.8637L13.074 3.06369H13.0728Z" fill="#1C64F2"/>
</svg>
