<svg width="24" height="24" viewBox="0 0 24 24" fill="none" xmlns="http://www.w3.org/2000/svg">
<g opacity="0.12">
<path d="M9.24755 7.90421C9.20591 7.88351 9.16282 7.86571 9.11859 7.85096L6.38022 6.93817C6.04914 6.82781 5.68447 6.89804 5.41805 7.12347L2.56089 9.54106C1.97597 10.036 2.14215 10.9779 2.86113 11.2428L5.2868 12.1365C5.3836 12.1721 5.48479 12.1924 5.58676 12.1971C5.7926 11.731 6.0789 11.2914 6.446 10.899L9.24755 7.90421Z" fill="#1C64F2"/>
<path d="M11.7128 18.3391C11.7206 18.4262 11.7399 18.5122 11.7704 18.5949L12.6786 21.0601C12.9435 21.7791 13.8854 21.9453 14.3803 21.3604L16.7979 18.5032C17.0234 18.2368 17.0936 17.8721 16.9832 17.541L16.1601 15.0715C16.1171 14.9427 16.0489 14.8254 15.9609 14.7257L13.0221 17.4749C12.6265 17.845 12.183 18.1329 11.7128 18.3391Z" fill="#1C64F2"/>
<path d="M17.5009 6.39389C16.861 5.75399 16.0604 5.05501 15.2622 4.42325C14.7339 4.00511 14.4697 3.79604 14.4323 3.61969C14.3985 3.46076 14.437 3.31143 14.5433 3.18859C14.6613 3.0523 14.9832 2.99866 15.6268 2.89138L19.3484 2.27112C20.702 2.04552 21.8756 3.21907 21.65 4.57271L21.0306 8.28916C20.9229 8.93518 20.8691 9.25819 20.7328 9.37617C20.6099 9.48263 20.461 9.52107 20.3019 9.4874C20.1257 9.45009 19.9154 9.18495 19.495 8.65467C18.8563 7.8492 18.1484 7.04133 17.5009 6.39389Z" fill="#1C64F2"/>
</g>
<path d="M13.0593 3.82981C13.4263 3.43757 13.9122 3.17717 14.442 3.08887L19.3485 2.27112C20.7021 2.04552 21.8757 3.21907 21.6501 4.57271L20.8323 9.47918C20.744 10.009 20.4836 10.4949 20.0914 10.8619L13.0223 17.4749C11.1899 19.1891 8.3283 19.1414 6.55405 17.3672C4.7798 15.5929 4.73212 12.7313 6.44628 10.899L13.0593 3.82981Z" fill="white"/>
<path d="M12.9999 11.0004L3.49992 20.5004M14.0183 3.53886C15.2364 4.34707 16.4071 5.2999 17.5011 6.39389C18.6045 7.49731 19.5643 8.6788 20.377 9.90815M9.25488 7.89654L6.38001 6.93825C6.04892 6.82789 5.68425 6.89811 5.41784 7.12354L2.56068 9.54114C1.97575 10.0361 2.14193 10.978 2.86092 11.2429L5.56811 12.2403M11.681 18.3529L12.6783 21.0601C12.9432 21.7791 13.8851 21.9453 14.3801 21.3604L16.7977 18.5032C17.0231 18.2368 17.0933 17.8721 16.983 17.541L16.0247 14.6662M19.3485 2.27112L14.442 3.08887C13.9122 3.17717 13.4263 3.43757 13.0593 3.82981L6.44628 10.899C4.73212 12.7313 4.7798 15.5929 6.55405 17.3672C8.3283 19.1414 11.1899 19.1891 13.0223 17.4749L20.0914 10.8619C20.4836 10.4949 20.744 10.009 20.8323 9.47918L21.6501 4.57271C21.8757 3.21907 20.7021 2.04552 19.3485 2.27112Z" stroke="#1C64F2" stroke-width="2" stroke-linecap="round" stroke-linejoin="round"/>
</svg>
