<svg width="24" height="24" viewBox="0 0 24 24" fill="none" xmlns="http://www.w3.org/2000/svg">
<path fill-rule="evenodd" clip-rule="evenodd" d="M2.40002 6.0001C2.40002 5.36358 2.65288 4.75313 3.10297 4.30304C3.55306 3.85295 4.1635 3.6001 4.80002 3.6001H19.2C19.8365 3.6001 20.447 3.85295 20.8971 4.30304C21.3472 4.75313 21.6 5.36358 21.6 6.0001V18.0001C21.6 18.6366 21.3472 19.2471 20.8971 19.6972C20.447 20.1472 19.8365 20.4001 19.2 20.4001H4.80002C4.1635 20.4001 3.55306 20.1472 3.10297 19.6972C2.65288 19.2471 2.40002 18.6366 2.40002 18.0001V6.0001ZM6.35162 7.5517C6.57666 7.32673 6.88183 7.20035 7.20002 7.20035C7.51822 7.20035 7.82339 7.32673 8.04842 7.5517L11.6484 11.1517C11.8734 11.3767 11.9998 11.6819 11.9998 12.0001C11.9998 12.3183 11.8734 12.6235 11.6484 12.8485L8.04842 16.4485C7.8221 16.6671 7.51898 16.788 7.20434 16.7853C6.88971 16.7826 6.58873 16.6564 6.36624 16.4339C6.14375 16.2114 6.01755 15.9104 6.01482 15.5958C6.01208 15.2811 6.13304 14.978 6.35162 14.7517L9.10322 12.0001L6.35162 9.2485C6.12666 9.02346 6.00028 8.71829 6.00028 8.4001C6.00028 8.0819 6.12666 7.77673 6.35162 7.5517ZM13.2 14.4001C12.8818 14.4001 12.5765 14.5265 12.3515 14.7516C12.1265 14.9766 12 15.2818 12 15.6001C12 15.9184 12.1265 16.2236 12.3515 16.4486C12.5765 16.6737 12.8818 16.8001 13.2 16.8001H16.8C17.1183 16.8001 17.4235 16.6737 17.6486 16.4486C17.8736 16.2236 18 15.9184 18 15.6001C18 15.2818 17.8736 14.9766 17.6486 14.7516C17.4235 14.5265 17.1183 14.4001 16.8 14.4001H13.2Z" fill="#1C64F2"/>
</svg>
