<svg width="18" height="18" viewBox="0 0 18 18" fill="none" xmlns="http://www.w3.org/2000/svg">
<path fill-rule="evenodd" clip-rule="evenodd" d="M2.99998 0.599976C2.36346 0.599976 1.75301 0.852832 1.30292 1.30292C0.852832 1.75301 0.599976 2.36346 0.599976 2.99998V15C0.599976 15.6365 0.852832 16.2469 1.30292 16.697C1.75301 17.1471 2.36346 17.4 2.99998 17.4H15C15.6365 17.4 16.2469 17.1471 16.697 16.697C17.1471 16.2469 17.4 15.6365 17.4 15V2.99998C17.4 2.36346 17.1471 1.75301 16.697 1.30292C16.2469 0.852832 15.6365 0.599976 15 0.599976H2.99998ZM13.8 5.39998C13.8 5.08172 13.6735 4.77649 13.4485 4.55145C13.2235 4.3264 12.9182 4.19998 12.6 4.19998C12.2817 4.19998 11.9765 4.3264 11.7514 4.55145C11.5264 4.77649 11.4 5.08172 11.4 5.39998V12.6C11.4 12.9182 11.5264 13.2235 11.7514 13.4485C11.9765 13.6735 12.2817 13.8 12.6 13.8C12.9182 13.8 13.2235 13.6735 13.4485 13.4485C13.6735 13.2235 13.8 12.9182 13.8 12.6V5.39998ZM10.2 7.79998C10.2 7.48172 10.0735 7.17649 9.8485 6.95145C9.62346 6.7264 9.31823 6.59998 8.99998 6.59998C8.68172 6.59998 8.37649 6.7264 8.15145 6.95145C7.9264 7.17649 7.79998 7.48172 7.79998 7.79998V12.6C7.79998 12.9182 7.9264 13.2235 8.15145 13.4485C8.37649 13.6735 8.68172 13.8 8.99998 13.8C9.31823 13.8 9.62346 13.6735 9.8485 13.4485C10.0735 13.2235 10.2 12.9182 10.2 12.6V7.79998ZM6.59998 11.4C6.59998 11.0817 6.47355 10.7765 6.2485 10.5514C6.02346 10.3264 5.71824 10.2 5.39998 10.2C5.08172 10.2 4.77649 10.3264 4.55145 10.5514C4.3264 10.7765 4.19998 11.0817 4.19998 11.4V12.6C4.19998 12.9182 4.3264 13.2235 4.55145 13.4485C4.77649 13.6735 5.08172 13.8 5.39998 13.8C5.71824 13.8 6.02346 13.6735 6.2485 13.4485C6.47355 13.2235 6.59998 12.9182 6.59998 12.6V11.4Z" fill="#1C64F2"/>
</svg>
