<svg width="134" height="34" viewBox="0 0 134 34" fill="none" xmlns="http://www.w3.org/2000/svg">
<path d="M35.2 17.0002C35.2 26.2786 27.4098 33.8002 17.8 33.8002C15.4855 33.8002 13.2766 33.3639 11.2566 32.5718C10.87 32.4202 10.6767 32.3444 10.5205 32.3106C10.3676 32.2775 10.2545 32.2654 10.0979 32.2654C9.93775 32.2654 9.76332 32.2935 9.41448 32.3496L2.5359 33.4565C1.81558 33.5724 1.45542 33.6304 1.19498 33.5225C0.967038 33.4281 0.785395 33.2527 0.687628 33.0326C0.575923 32.7812 0.63595 32.4335 0.756003 31.738L1.90243 25.0966C1.96057 24.7598 1.98964 24.5914 1.98962 24.4368C1.9896 24.2855 1.97707 24.1763 1.94282 24.0287C1.90779 23.8778 1.82929 23.6912 1.67228 23.3179C0.851914 21.3676 0.400024 19.2349 0.400024 17.0002C0.400024 7.72181 8.19027 0.200195 17.8 0.200195C27.4098 0.200195 35.2 7.72181 35.2 17.0002Z" fill="#1C64F2"/>
<path opacity="0.72" fill-rule="evenodd" clip-rule="evenodd" d="M30.2015 28.7843L16.1504 28.7843C15.8026 28.7843 15.4798 28.6037 15.298 28.3072L8.863 17.8185C8.81473 17.7398 8.78918 17.6493 8.78918 17.557V14.2837L16.4342 26.6292C16.5709 26.85 16.8122 26.9843 17.0718 26.9843H31.7953C31.3079 27.6202 30.7751 28.2217 30.2015 28.7843Z" fill="white"/>
<path d="M33.9221 23.3313C34.7461 21.3774 35.2 19.24 35.2 17.0002C35.2 16.651 35.189 16.3044 35.1672 15.9605H22.9007C22.7266 15.9605 22.5649 15.8699 22.4741 15.7213L17.4623 7.52294C17.435 7.47836 17.3865 7.45117 17.3343 7.45117H9.23503C9.03978 7.45117 8.91989 7.66498 9.02173 7.83157L18.2046 22.8529C18.3863 23.1501 18.7095 23.3313 19.0578 23.3313L33.9221 23.3313Z" fill="white"/>
<rect x="44.8" y="26.9844" width="25.1839" height="1.8" fill="#1C64F2"/>
<rect x="82.1849" y="26.9844" width="51.3964" height="1.8" fill="#1C64F2"/>
<path d="M47.824 21.8268H51.1288V24.3756H44.8V10.4004H47.824V21.8268Z" fill="#1C64F2"/>
<path d="M57.8113 13.8348H60.2521V24.3756H57.8113V23.598C57.3649 24.2604 56.6233 24.5916 55.5865 24.5916H55.1329C53.3473 24.5916 52.4545 23.6412 52.4545 21.7404V16.47C52.4545 14.5692 53.3473 13.6188 55.1329 13.6188H55.5865C56.6233 13.6188 57.3649 13.95 57.8113 14.6124V13.8348ZM57.3577 22.086V16.1244C57.3577 16.0092 57.3145 15.9084 57.2281 15.822C57.1561 15.7356 57.0625 15.6924 56.9473 15.6924H55.7593C55.6441 15.6924 55.5433 15.7356 55.4569 15.822C55.3849 15.9084 55.3489 16.0092 55.3489 16.1244V22.086C55.3489 22.2012 55.3849 22.302 55.4569 22.3884C55.5433 22.4748 55.6441 22.518 55.7593 22.518H56.9473C57.0625 22.518 57.1561 22.4748 57.2281 22.3884C57.3145 22.302 57.3577 22.2012 57.3577 22.086Z" fill="#1C64F2"/>
<path d="M65.1154 24.3756H62.221V13.8348H64.8562V14.3748C65.3026 13.8708 65.9794 13.6188 66.8866 13.6188H67.3402C69.1258 13.6188 70.0186 14.5692 70.0186 16.47V24.3756H67.1242V16.1244C67.1242 16.0092 67.081 15.9084 66.9946 15.822C66.9226 15.7356 66.829 15.6924 66.7138 15.6924H65.5258C65.4106 15.6924 65.3098 15.7356 65.2234 15.822C65.1514 15.9084 65.1154 16.0092 65.1154 16.1244V24.3756Z" fill="#1C64F2"/>
<path d="M79.785 13.8348V25.1748C79.785 27.0756 78.8922 28.026 77.1066 28.026H74.9466C73.161 28.026 72.2682 27.0756 72.2682 25.1748V24.8292H74.8818V25.5204C74.8818 25.6356 74.9178 25.7364 74.9898 25.8228C75.0762 25.9092 75.177 25.9524 75.2922 25.9524H76.4802C76.5954 25.9524 76.689 25.9092 76.761 25.8228C76.8474 25.7364 76.8906 25.6356 76.8906 25.5204V23.3604C76.4442 23.706 75.8538 23.8788 75.1194 23.8788H74.6658C72.8802 23.8788 71.9874 22.9284 71.9874 21.0276V16.47C71.9874 14.5692 72.8802 13.6188 74.6658 13.6188H75.1194C76.1562 13.6188 76.8978 13.95 77.3442 14.6124V13.8348H79.785ZM76.8906 21.3732V16.1244C76.8906 16.0092 76.8474 15.9084 76.761 15.822C76.689 15.7356 76.5954 15.6924 76.4802 15.6924H75.2922C75.177 15.6924 75.0762 15.7356 74.9898 15.822C74.9178 15.9084 74.8818 16.0092 74.8818 16.1244V21.3732C74.8818 21.4884 74.9178 21.5892 74.9898 21.6756C75.0762 21.762 75.177 21.8052 75.2922 21.8052H76.4802C76.5954 21.8052 76.689 21.762 76.761 21.6756C76.8474 21.5892 76.8906 21.4884 76.8906 21.3732Z" fill="#1C64F2"/>
<path d="M86.2673 19.4292V17.2044H90.2633V22.3452C90.2633 24.246 89.3705 25.1964 87.5849 25.1964H84.8633C83.0777 25.1964 82.1849 24.246 82.1849 22.3452V13.6404C82.1849 11.7396 83.0777 10.7892 84.8633 10.7892H87.5849C89.3705 10.7892 90.2633 11.7396 90.2633 13.6404V14.958H87.3905V13.2732C87.3905 13.158 87.3473 13.0572 87.2609 12.9708C87.1889 12.8844 87.0953 12.8412 86.9801 12.8412H85.6193C85.5041 12.8412 85.4033 12.8844 85.3169 12.9708C85.2449 13.0572 85.2089 13.158 85.2089 13.2732V22.6908C85.2089 22.806 85.2449 22.9068 85.3169 22.9932C85.4033 23.0796 85.5041 23.1228 85.6193 23.1228H86.9801C87.0953 23.1228 87.1889 23.0796 87.2609 22.9932C87.3473 22.9068 87.3905 22.806 87.3905 22.6908V19.4292H86.2673Z" fill="#111928"/>
<path d="M96.9414 14.2236C98.727 14.2236 99.6198 15.174 99.6198 17.0748V20.4876H94.7166V22.6908C94.7166 22.806 94.7526 22.9068 94.8246 22.9932C94.911 23.0796 95.0118 23.1228 95.127 23.1228H96.315C96.4302 23.1228 96.5238 23.0796 96.5958 22.9932C96.6822 22.9068 96.7254 22.806 96.7254 22.6908V21.5244H99.6198V22.3452C99.6198 24.246 98.727 25.1964 96.9414 25.1964H94.5006C92.715 25.1964 91.8222 24.246 91.8222 22.3452V17.0748C91.8222 15.174 92.715 14.2236 94.5006 14.2236H96.9414ZM94.7166 18.5868H96.7254V16.6428C96.7254 16.5276 96.6822 16.4268 96.5958 16.3404C96.5238 16.254 96.4302 16.2108 96.315 16.2108H95.127C95.0118 16.2108 94.911 16.254 94.8246 16.3404C94.7526 16.4268 94.7166 16.5276 94.7166 16.6428V18.5868Z" fill="#111928"/>
<path d="M104.103 24.9804H101.209V14.4396H103.844V14.9796C104.291 14.4756 104.967 14.2236 105.875 14.2236H106.328C108.114 14.2236 109.007 15.174 109.007 17.0748V24.9804H106.112V16.7292C106.112 16.614 106.069 16.5132 105.983 16.4268C105.911 16.3404 105.817 16.2972 105.702 16.2972H104.514C104.399 16.2972 104.298 16.3404 104.211 16.4268C104.139 16.5132 104.103 16.614 104.103 16.7292V24.9804Z" fill="#111928"/>
<path d="M113.913 13.122C113.611 13.4244 113.243 13.5756 112.811 13.5756C112.379 13.5756 112.005 13.4244 111.688 13.122C111.371 12.8052 111.213 12.4308 111.213 11.9988C111.213 11.5524 111.371 11.178 111.688 10.8756C112.005 10.5588 112.379 10.4004 112.811 10.4004C113.243 10.4004 113.611 10.5588 113.913 10.8756C114.23 11.178 114.388 11.5524 114.388 11.9988C114.388 12.4452 114.23 12.8196 113.913 13.122ZM111.364 24.9804V14.4396H114.259V24.9804H111.364Z" fill="#111928"/>
<path d="M121.194 14.4396H124.089V24.9804H121.453V24.4404C121.007 24.9444 120.33 25.1964 119.423 25.1964H118.969C117.184 25.1964 116.291 24.246 116.291 22.3452V14.4396H119.185V22.6908C119.185 22.806 119.221 22.9068 119.293 22.9932C119.38 23.0796 119.481 23.1228 119.596 23.1228H120.784C120.899 23.1228 120.993 23.0796 121.065 22.9932C121.151 22.9068 121.194 22.806 121.194 22.6908V14.4396Z" fill="#111928"/>
<path d="M131.025 18.3708C132.811 18.3708 133.704 19.3212 133.704 21.222V22.3452C133.704 24.246 132.811 25.1964 131.025 25.1964H128.628C126.842 25.1964 125.949 24.246 125.949 22.3452V21.6756H128.628V22.626C128.628 22.7412 128.664 22.842 128.736 22.9284C128.822 23.0148 128.923 23.058 129.038 23.058H130.809C130.925 23.058 131.018 23.0148 131.09 22.9284C131.177 22.842 131.22 22.7412 131.22 22.626V21.33C131.22 21.2148 131.177 21.114 131.09 21.0276C131.018 20.9412 130.925 20.898 130.809 20.898H128.585C126.799 20.898 125.906 19.9476 125.906 18.0468V17.0748C125.906 15.174 126.799 14.2236 128.585 14.2236H130.853C132.638 14.2236 133.531 15.174 133.531 17.0748V17.4636H130.853V16.794C130.853 16.6788 130.809 16.578 130.723 16.4916C130.651 16.4052 130.557 16.362 130.442 16.362H128.801C128.685 16.362 128.585 16.4052 128.498 16.4916C128.426 16.578 128.39 16.6788 128.39 16.794V17.9388C128.39 18.054 128.426 18.1548 128.498 18.2412C128.585 18.3276 128.685 18.3708 128.801 18.3708H131.025Z" fill="#111928"/>
</svg>
