<svg width="182" height="36" viewBox="0 0 182 36" fill="none" xmlns="http://www.w3.org/2000/svg">
<path d="M24.5195 14.9427C24.4454 15.4532 24.1088 16.1466 23.7227 16.7495C23.2355 17.5103 22.4623 18.0431 21.5775 18.2282L17.6798 19.0432C17.0534 19.1742 16.4853 19.5021 16.0588 19.9788L13.5032 22.8355C13.0228 23.3724 12.6871 23.2443 12.6871 22.5243C12.6813 22.551 11.4188 25.807 14.7647 27.7369C16.0503 28.4785 17.901 28.212 19.1866 27.4705L25.9984 23.5414C28.546 22.072 30.3446 19.5862 30.9425 16.7087C30.9661 16.5949 30.9844 16.4806 31.0041 16.3665L24.5195 14.9427Z" fill="url(#paint0_linear_288_1551)"/>
<path d="M22.7529 11.0179C24.0386 11.7595 24.5638 12.8635 24.5638 14.3466C24.5638 14.5479 24.548 14.7468 24.5195 14.9427L27.2643 16.1217L31.0041 16.3665C31.483 13.595 30.5445 10.7422 28.8621 8.47463C27.596 6.76819 25.9668 5.28732 24.0082 4.15756C22.4172 3.23984 20.7638 2.63519 19.1026 2.30341L17.2362 4.72041L16.6466 7.49577L22.7529 11.0179Z" fill="url(#paint1_linear_288_1551)"/>
<path d="M0.783597 13.0518C0.782899 13.054 0.784832 13.0546 0.78556 13.0524C0.929583 12.6205 1.11018 12.1385 1.33564 11.6237C2.51334 8.9343 4.78286 7.14062 7.57492 6.22608C10.367 5.31156 13.4155 5.63212 15.9601 7.09988L16.6465 7.49578L19.1025 2.30341C11.291 0.743236 3.30728 5.33253 0.793528 13.0217C0.792327 13.0254 0.787957 13.0382 0.783597 13.0518Z" fill="url(#paint2_linear_288_1551)"/>
<path d="M18.9198 27.4705C17.6342 28.212 16.0502 28.212 14.7646 27.4705C14.5901 27.3698 14.4256 27.2566 14.27 27.1341L12.009 28.6886L10.0602 31.8377C12.2232 33.6377 15.032 34.2164 17.8388 33.8946C19.9511 33.6524 22.0494 32.9832 24.008 31.8535C25.5991 30.9358 26.9499 29.8076 28.0681 28.5362L26.9062 25.7129L25.0261 23.9483L18.9198 27.4705Z" fill="url(#paint3_linear_288_1551)"/>
<path d="M14.27 27.1341C13.2795 26.3539 12.687 25.1572 12.687 23.8754V23.7476V13.0724C12.687 12.4687 12.8649 12.3661 13.3882 12.6679C12.5822 12.203 10.7202 10.607 8.42105 11.9331C7.13545 12.6747 6.07678 14.3115 6.07678 15.7946V23.6528C6.07678 26.5917 7.59894 29.6572 9.79436 31.6132C9.8812 31.6906 9.9711 31.7635 10.0602 31.8377L14.27 27.1341Z" fill="url(#paint4_linear_288_1551)"/>
<path d="M27.9104 7.31238C27.9089 7.31068 27.9073 7.31205 27.9089 7.31376C28.2113 7.65436 28.5388 8.05158 28.8723 8.50407C30.6148 10.8677 31.2658 13.8614 30.6626 16.7344C30.0593 19.6073 28.2571 22.0846 25.7125 23.5524L25.0261 23.9483L28.0681 28.5362C33.3264 22.5577 33.34 13.3555 27.9315 7.33602C27.9289 7.33314 27.92 7.32294 27.9104 7.31238Z" fill="url(#paint5_linear_288_1551)"/>
<path d="M6.34355 15.7947C6.34354 14.3116 7.13551 12.9411 8.42113 12.1996C8.59564 12.0989 8.77601 12.0132 8.96002 11.9398L8.74304 9.20633L7.21861 6.07892C4.57671 7.05035 2.4397 9.05796 1.31528 11.6474C0.469097 13.596 9.792e-06 15.7461 0 18.0056C0 19.841 0.302549 21.5738 0.845532 23.177L3.87391 23.5833L6.34355 22.839V15.7947Z" fill="url(#paint6_linear_288_1551)"/>
<path d="M8.96003 11.9398C10.1316 11.4729 11.4652 11.5587 12.5763 12.1996L12.6871 12.2635L21.5825 17.3944C22.2065 17.7543 22.1498 18.1085 21.4445 18.256L21.9577 18.1487C22.6329 18.0075 23.2498 17.6624 23.7215 17.1595C24.5327 16.295 24.8304 15.2518 24.8304 14.3466C24.8304 12.8635 24.0385 11.493 22.7529 10.7515L15.941 6.82239C13.3935 5.35298 10.3394 5.03965 7.5461 5.96113C7.4356 5.99758 7.32744 6.03891 7.21863 6.07892L8.96003 11.9398Z" fill="url(#paint7_linear_288_1551)"/>
<path d="M19.3222 33.6524C19.3245 33.6519 19.3241 33.6499 19.3218 33.6504C18.8753 33.7418 18.3673 33.8265 17.8083 33.8888C14.8881 34.2146 11.9676 33.281 9.77876 31.3226C7.58999 29.3642 6.34359 26.5663 6.3436 23.6308L6.34359 22.839L0.845581 23.177C3.39893 30.7157 11.369 35.3285 19.2912 33.6589C19.295 33.6581 19.3083 33.6554 19.3222 33.6524Z" fill="url(#paint8_linear_288_1551)"/>
<path d="M45.7216 27V9.54545H48.8835V24.3494H56.571V27H45.7216ZM62.946 27.2642C62.1165 27.2642 61.3693 27.1165 60.7045 26.821C60.0455 26.5199 59.5227 26.0767 59.1364 25.4915C58.7557 24.9062 58.5653 24.1847 58.5653 23.3267C58.5653 22.5881 58.7017 21.9773 58.9744 21.4943C59.2472 21.0114 59.6193 20.625 60.0909 20.3352C60.5625 20.0455 61.0938 19.8267 61.6847 19.679C62.2813 19.5256 62.8977 19.4148 63.5341 19.3466C64.3011 19.267 64.9233 19.196 65.4006 19.1335C65.8778 19.0653 66.2244 18.9631 66.4403 18.8267C66.6619 18.6847 66.7727 18.4659 66.7727 18.1705V18.1193C66.7727 17.4773 66.5824 16.9801 66.2017 16.6278C65.821 16.2756 65.2727 16.0994 64.5568 16.0994C63.8011 16.0994 63.2017 16.2642 62.7585 16.5938C62.321 16.9233 62.0256 17.3125 61.8722 17.7614L58.9915 17.3523C59.2188 16.5568 59.5938 15.892 60.1165 15.358C60.6392 14.8182 61.2784 14.4148 62.0341 14.1477C62.7898 13.875 63.625 13.7386 64.5398 13.7386C65.1705 13.7386 65.7983 13.8125 66.4233 13.9602C67.0483 14.108 67.6193 14.3523 68.1364 14.6932C68.6534 15.0284 69.0682 15.4858 69.3807 16.0653C69.6989 16.6449 69.858 17.3693 69.858 18.2386V27H66.892V25.2017H66.7898C66.6023 25.5653 66.3381 25.9062 65.9972 26.2244C65.6619 26.5369 65.2386 26.7898 64.7273 26.983C64.2216 27.1705 63.6278 27.2642 62.946 27.2642ZM63.7472 24.9972C64.3665 24.9972 64.9034 24.875 65.358 24.6307C65.8125 24.3807 66.1619 24.0511 66.4062 23.642C66.6562 23.233 66.7812 22.7869 66.7812 22.304V20.7614C66.6847 20.8409 66.5199 20.9148 66.2869 20.983C66.0597 21.0511 65.804 21.1108 65.5199 21.1619C65.2358 21.2131 64.9545 21.2585 64.6761 21.2983C64.3977 21.3381 64.1563 21.3722 63.9517 21.4006C63.4915 21.4631 63.0795 21.5653 62.7159 21.7074C62.3523 21.8494 62.0653 22.0483 61.8551 22.304C61.6449 22.554 61.5398 22.8778 61.5398 23.2756C61.5398 23.8438 61.7472 24.2727 62.1619 24.5625C62.5767 24.8523 63.1051 24.9972 63.7472 24.9972ZM76.0455 19.3295V27H72.9602V13.9091H75.9091V16.1335H76.0625C76.3636 15.4006 76.8438 14.8182 77.5028 14.3864C78.1676 13.9545 78.9886 13.7386 79.9659 13.7386C80.8693 13.7386 81.6563 13.9318 82.3267 14.3182C83.0028 14.7045 83.5256 15.2642 83.8949 15.9972C84.2699 16.7301 84.4545 17.6193 84.4489 18.6648V27H81.3636V19.142C81.3636 18.267 81.1364 17.5824 80.6818 17.0881C80.233 16.5937 79.6108 16.3466 78.8153 16.3466C78.2756 16.3466 77.7955 16.4659 77.375 16.7045C76.9602 16.9375 76.6335 17.2756 76.3949 17.7188C76.1619 18.1619 76.0455 18.6989 76.0455 19.3295ZM93.2784 32.1818C92.1705 32.1818 91.2188 32.0313 90.4233 31.7301C89.6278 31.4347 88.9886 31.0369 88.5057 30.5369C88.0227 30.0369 87.6875 29.483 87.5 28.875L90.2784 28.2017C90.4034 28.4574 90.5852 28.7102 90.8239 28.9602C91.0625 29.2159 91.3835 29.4261 91.7869 29.5909C92.196 29.7614 92.7102 29.8466 93.3295 29.8466C94.2045 29.8466 94.929 29.6335 95.5028 29.2074C96.0767 28.7869 96.3636 28.0938 96.3636 27.1278V24.6477H96.2102C96.0511 24.9659 95.8182 25.2926 95.5114 25.6278C95.2102 25.9631 94.8097 26.2443 94.3097 26.4716C93.8153 26.6989 93.1932 26.8125 92.4432 26.8125C91.4375 26.8125 90.5256 26.5767 89.7074 26.1051C88.8949 25.6278 88.2472 24.9176 87.7642 23.9744C87.2869 23.0256 87.0483 21.8381 87.0483 20.4119C87.0483 18.9744 87.2869 17.7614 87.7642 16.7727C88.2472 15.7784 88.8977 15.0256 89.7159 14.5142C90.5341 13.9972 91.446 13.7386 92.4517 13.7386C93.2188 13.7386 93.8494 13.8693 94.3438 14.1307C94.8438 14.3864 95.2415 14.696 95.5369 15.0597C95.8324 15.4176 96.0568 15.7557 96.2102 16.0739H96.3807V13.9091H99.4233V27.2131C99.4233 28.3324 99.1563 29.2585 98.6222 29.9915C98.0881 30.7244 97.358 31.2727 96.4318 31.6364C95.5057 32 94.4545 32.1818 93.2784 32.1818ZM93.304 24.392C93.9574 24.392 94.5142 24.233 94.9744 23.9148C95.4347 23.5966 95.7841 23.1392 96.0227 22.5426C96.2614 21.946 96.3807 21.2301 96.3807 20.3949C96.3807 19.571 96.2614 18.8494 96.0227 18.2301C95.7898 17.6108 95.4432 17.1307 94.983 16.7898C94.5284 16.4432 93.9688 16.2699 93.304 16.2699C92.6165 16.2699 92.0426 16.4489 91.5824 16.8068C91.1222 17.1648 90.7756 17.6562 90.5426 18.2812C90.3097 18.9006 90.1932 19.6051 90.1932 20.3949C90.1932 21.196 90.3097 21.8977 90.5426 22.5C90.7813 23.0966 91.1307 23.5625 91.5909 23.8977C92.0568 24.2273 92.6278 24.392 93.304 24.392ZM114.415 15.1193C114.273 14.6591 114.077 14.2472 113.827 13.8835C113.582 13.5142 113.287 13.1989 112.94 12.9375C112.599 12.6761 112.207 12.4801 111.764 12.3494C111.321 12.2131 110.838 12.1449 110.315 12.1449C109.378 12.1449 108.543 12.3807 107.81 12.8523C107.077 13.3239 106.5 14.017 106.08 14.9318C105.665 15.8409 105.457 16.9489 105.457 18.2557C105.457 19.5739 105.665 20.6903 106.08 21.6051C106.494 22.5199 107.071 23.2159 107.81 23.6932C108.548 24.1648 109.406 24.4006 110.384 24.4006C111.27 24.4006 112.037 24.2301 112.685 23.8892C113.338 23.5483 113.841 23.0653 114.193 22.4403C114.545 21.8097 114.722 21.071 114.722 20.2244L115.438 20.3352H110.699V17.8636H117.781V19.9602C117.781 21.4545 117.463 22.7472 116.827 23.8381C116.19 24.929 115.315 25.7699 114.202 26.3608C113.088 26.946 111.81 27.2386 110.366 27.2386C108.759 27.2386 107.347 26.8778 106.131 26.1562C104.92 25.429 103.974 24.3977 103.293 23.0625C102.616 21.7216 102.278 20.1307 102.278 18.2898C102.278 16.8807 102.477 15.6222 102.875 14.5142C103.278 13.4062 103.841 12.4659 104.562 11.6932C105.284 10.9148 106.131 10.3239 107.102 9.92045C108.074 9.51136 109.131 9.30682 110.273 9.30682C111.239 9.30682 112.139 9.44886 112.974 9.73295C113.81 10.0114 114.551 10.4091 115.199 10.9261C115.852 11.4432 116.389 12.0568 116.81 12.767C117.23 13.4773 117.506 14.2614 117.636 15.1193H114.415ZM126.498 27.2557C125.185 27.2557 124.052 26.983 123.097 26.4375C122.148 25.8864 121.418 25.108 120.907 24.1023C120.396 23.0909 120.14 21.9006 120.14 20.5312C120.14 19.1847 120.396 18.0028 120.907 16.9858C121.424 15.9631 122.146 15.1676 123.072 14.5994C123.998 14.0256 125.086 13.7386 126.336 13.7386C127.143 13.7386 127.904 13.8693 128.62 14.1307C129.342 14.3864 129.978 14.7841 130.529 15.3239C131.086 15.8636 131.523 16.5511 131.842 17.3864C132.16 18.2159 132.319 19.2045 132.319 20.3523V21.2983H121.589V19.2188H129.362C129.356 18.6278 129.228 18.1023 128.978 17.642C128.728 17.1761 128.379 16.8097 127.93 16.5426C127.487 16.2756 126.969 16.142 126.379 16.142C125.748 16.142 125.194 16.2955 124.717 16.6023C124.239 16.9034 123.867 17.3011 123.6 17.7955C123.339 18.2841 123.205 18.821 123.2 19.4062V21.2216C123.2 21.983 123.339 22.6364 123.617 23.1818C123.896 23.7216 124.285 24.1364 124.785 24.4261C125.285 24.7102 125.87 24.8523 126.54 24.8523C126.989 24.8523 127.396 24.7898 127.759 24.6648C128.123 24.5341 128.438 24.3438 128.705 24.0938C128.972 23.8438 129.174 23.5341 129.31 23.1648L132.191 23.4886C132.009 24.25 131.663 24.9148 131.151 25.483C130.646 26.0455 129.998 26.483 129.208 26.7955C128.418 27.1023 127.515 27.2557 126.498 27.2557ZM138.014 19.3295V27H134.929V13.9091H137.878V16.1335H138.031C138.332 15.4006 138.813 14.8182 139.472 14.3864C140.136 13.9545 140.957 13.7386 141.935 13.7386C142.838 13.7386 143.625 13.9318 144.295 14.3182C144.972 14.7045 145.494 15.2642 145.864 15.9972C146.239 16.7301 146.423 17.6193 146.418 18.6648V27H143.332V19.142C143.332 18.267 143.105 17.5824 142.651 17.0881C142.202 16.5937 141.58 16.3466 140.784 16.3466C140.244 16.3466 139.764 16.4659 139.344 16.7045C138.929 16.9375 138.602 17.2756 138.364 17.7188C138.131 18.1619 138.014 18.6989 138.014 19.3295ZM149.554 27V13.9091H152.639V27H149.554ZM151.105 12.0511C150.616 12.0511 150.196 11.8892 149.844 11.5653C149.491 11.2358 149.315 10.8409 149.315 10.3807C149.315 9.91477 149.491 9.51989 149.844 9.19602C150.196 8.86648 150.616 8.7017 151.105 8.7017C151.599 8.7017 152.02 8.86648 152.366 9.19602C152.719 9.51989 152.895 9.91477 152.895 10.3807C152.895 10.8409 152.719 11.2358 152.366 11.5653C152.02 11.8892 151.599 12.0511 151.105 12.0511ZM164.156 21.4943V13.9091H167.241V27H164.249V24.6733H164.113C163.817 25.4062 163.332 26.0057 162.656 26.4716C161.985 26.9375 161.158 27.1705 160.175 27.1705C159.317 27.1705 158.559 26.9801 157.9 26.5994C157.246 26.2131 156.735 25.6534 156.366 24.9205C155.996 24.1818 155.812 23.2898 155.812 22.2443V13.9091H158.897V21.767C158.897 22.5966 159.124 23.2557 159.579 23.7443C160.033 24.233 160.63 24.4773 161.369 24.4773C161.823 24.4773 162.263 24.3665 162.69 24.1449C163.116 23.9233 163.465 23.5938 163.738 23.1562C164.016 22.7131 164.156 22.1591 164.156 21.4943ZM180.76 17.3693L177.947 17.6761C177.868 17.392 177.729 17.125 177.53 16.875C177.337 16.625 177.075 16.4233 176.746 16.2699C176.416 16.1165 176.013 16.0398 175.536 16.0398C174.893 16.0398 174.354 16.179 173.916 16.4574C173.484 16.7358 173.271 17.0966 173.277 17.5398C173.271 17.9205 173.411 18.2301 173.695 18.4688C173.984 18.7074 174.462 18.9034 175.126 19.0568L177.359 19.5341C178.598 19.8011 179.518 20.2244 180.121 20.804C180.729 21.3835 181.036 22.142 181.041 23.0795C181.036 23.9034 180.794 24.6307 180.317 25.2614C179.845 25.8864 179.189 26.375 178.348 26.7273C177.507 27.0795 176.541 27.2557 175.45 27.2557C173.848 27.2557 172.558 26.9205 171.581 26.25C170.604 25.5739 170.021 24.6335 169.834 23.429L172.842 23.1392C172.979 23.7301 173.268 24.1761 173.712 24.4773C174.155 24.7784 174.732 24.929 175.442 24.929C176.175 24.929 176.763 24.7784 177.206 24.4773C177.655 24.1761 177.879 23.804 177.879 23.3608C177.879 22.9858 177.734 22.6761 177.445 22.4318C177.161 22.1875 176.717 22 176.115 21.8693L173.882 21.4006C172.626 21.1392 171.697 20.6989 171.095 20.0795C170.493 19.4545 170.195 18.6648 170.2 17.7102C170.195 16.9034 170.413 16.2045 170.857 15.6136C171.305 15.017 171.928 14.5568 172.723 14.233C173.524 13.9034 174.447 13.7386 175.493 13.7386C177.027 13.7386 178.234 14.0653 179.115 14.7188C180.001 15.3722 180.55 16.2557 180.76 17.3693Z" fill="#111928"/>
<defs>
<linearGradient id="paint0_linear_288_1551" x1="20.0601" y1="25.7699" x2="23.2076" y2="14.8068" gradientUnits="userSpaceOnUse">
<stop stop-color="#1724C9"/>
<stop offset="1" stop-color="#1C64F2"/>
</linearGradient>
<linearGradient id="paint1_linear_288_1551" x1="27.3094" y1="12.4003" x2="19.0298" y2="4.1498" gradientUnits="userSpaceOnUse">
<stop stop-color="#1C64F2"/>
<stop offset="1" stop-color="#0092FF"/>
</linearGradient>
<linearGradient id="paint2_linear_288_1551" x1="16.1645" y1="7.02115" x2="3.67432" y2="7.8104" gradientUnits="userSpaceOnUse">
<stop stop-color="#0092FF"/>
<stop offset="1" stop-color="#45B2FF"/>
</linearGradient>
<linearGradient id="paint3_linear_288_1551" x1="15.3197" y1="30.6627" x2="26.5365" y2="27.6359" gradientUnits="userSpaceOnUse">
<stop stop-color="#1C64F2"/>
<stop offset="1" stop-color="#0092FF"/>
</linearGradient>
<linearGradient id="paint4_linear_288_1551" x1="7.26869" y1="17.6827" x2="15.2323" y2="25.9347" gradientUnits="userSpaceOnUse">
<stop stop-color="#1724C9"/>
<stop offset="1" stop-color="#1C64F2"/>
</linearGradient>
<linearGradient id="paint5_linear_288_1551" x1="25.4504" y1="23.6357" x2="31.0069" y2="12.4345" gradientUnits="userSpaceOnUse">
<stop stop-color="#0092FF"/>
<stop offset="1" stop-color="#45B2FF"/>
</linearGradient>
<linearGradient id="paint6_linear_288_1551" x1="5.36387" y1="11.131" x2="2.39054" y2="22.3066" gradientUnits="userSpaceOnUse">
<stop stop-color="#1C64F2"/>
<stop offset="1" stop-color="#0092FF"/>
</linearGradient>
<linearGradient id="paint7_linear_288_1551" x1="20.5431" y1="10.5994" x2="9.67768" y2="13.3047" gradientUnits="userSpaceOnUse">
<stop stop-color="#1724C9"/>
<stop offset="1" stop-color="#1C64F2"/>
</linearGradient>
<linearGradient id="paint8_linear_288_1551" x1="6.40679" y1="23.3567" x2="13.3326" y2="33.7746" gradientUnits="userSpaceOnUse">
<stop stop-color="#0092FF"/>
<stop offset="1" stop-color="#45B2FF"/>
</linearGradient>
</defs>
</svg>
