<svg width="112" height="28" viewBox="0 0 112 28" fill="none" xmlns="http://www.w3.org/2000/svg">
<path d="M29 14C29 21.732 22.5081 28 14.5 28C12.5713 28 10.7305 27.6364 9.04718 26.9763C8.72501 26.85 8.56393 26.7869 8.43371 26.7587C8.30634 26.7311 8.21208 26.721 8.08155 26.721C7.9481 26.721 7.80275 26.7444 7.51205 26.7912L1.77989 27.7136C1.17963 27.8102 0.879495 27.8585 0.662464 27.7686C0.472511 27.6899 0.321142 27.5438 0.23967 27.3604C0.146582 27.1508 0.196605 26.861 0.296649 26.2815L1.25201 20.747C1.30046 20.4663 1.32468 20.326 1.32467 20.1971C1.32465 20.0711 1.31421 19.9801 1.28566 19.8571C1.25647 19.7314 1.19105 19.5759 1.06021 19.2648C0.376575 17.6395 0 15.8622 0 14C0 6.26801 6.49187 0 14.5 0C22.5081 0 29 6.26801 29 14Z" fill="#1C64F2"/>
<path opacity="0.72" fill-rule="evenodd" clip-rule="evenodd" d="M24.8348 23.8202L13.2188 23.8202C12.8711 23.8202 12.5483 23.6395 12.3664 23.3431L7.06503 14.702C7.01676 14.6234 6.99121 14.5329 6.99121 14.4406V11.7363L13.3254 21.9651C13.4621 22.1858 13.7034 22.3202 13.963 22.3202H26.163C25.7568 22.8501 25.3128 23.3513 24.8348 23.8202Z" fill="white"/>
<path d="M27.9353 19.2759C28.6219 17.6476 29.0002 15.8665 29.0002 14C29.0002 13.709 28.9911 13.4202 28.9729 13.1336H18.7975C18.6234 13.1336 18.4618 13.043 18.3709 12.8944L14.2261 6.11424C14.1988 6.06967 14.1504 6.04248 14.0981 6.04248H7.43706C7.24181 6.04248 7.12192 6.25629 7.22375 6.42288L14.7886 18.7975C14.9703 19.0947 15.2935 19.2759 15.6418 19.2759L27.9353 19.2759Z" fill="white"/>
<rect x="37" y="22.3202" width="20.9866" height="1.5" fill="#1C64F2"/>
<rect x="68.1543" y="22.3201" width="42.8303" height="1.5" fill="#1C64F2"/>
<path d="M39.52 18.022H42.274V20.146H37V8.5H39.52V18.022Z" fill="#1C64F2"/>
<path d="M47.8428 11.362H49.8768V20.146H47.8428V19.498C47.4708 20.05 46.8528 20.326 45.9888 20.326H45.6108C44.1228 20.326 43.3787 19.534 43.3787 17.95V13.558C43.3787 11.974 44.1228 11.182 45.6108 11.182H45.9888C46.8528 11.182 47.4708 11.458 47.8428 12.01V11.362ZM47.4648 18.238V13.27C47.4648 13.174 47.4288 13.09 47.3568 13.018C47.2968 12.946 47.2188 12.91 47.1228 12.91H46.1328C46.0368 12.91 45.9528 12.946 45.8808 13.018C45.8208 13.09 45.7908 13.174 45.7908 13.27V18.238C45.7908 18.334 45.8208 18.418 45.8808 18.49C45.9528 18.562 46.0368 18.598 46.1328 18.598H47.1228C47.2188 18.598 47.2968 18.562 47.3568 18.49C47.4288 18.418 47.4648 18.334 47.4648 18.238Z" fill="#1C64F2"/>
<path d="M53.9294 20.146H51.5174V11.362H53.7134V11.812C54.0854 11.392 54.6494 11.182 55.4054 11.182H55.7834C57.2714 11.182 58.0154 11.974 58.0154 13.558V20.146H55.6034V13.27C55.6034 13.174 55.5674 13.09 55.4954 13.018C55.4354 12.946 55.3574 12.91 55.2614 12.91H54.2714C54.1754 12.91 54.0914 12.946 54.0194 13.018C53.9594 13.09 53.9294 13.174 53.9294 13.27V20.146Z" fill="#1C64F2"/>
<path d="M66.1541 11.362V20.812C66.1541 22.396 65.4101 23.188 63.9221 23.188H62.1221C60.6341 23.188 59.8901 22.396 59.8901 20.812V20.524H62.0681V21.1C62.0681 21.196 62.0981 21.28 62.1581 21.352C62.2301 21.424 62.3141 21.46 62.4101 21.46H63.4001C63.4961 21.46 63.5741 21.424 63.6341 21.352C63.7061 21.28 63.7421 21.196 63.7421 21.1V19.3C63.3701 19.588 62.8781 19.732 62.2661 19.732H61.8881C60.4001 19.732 59.6561 18.94 59.6561 17.356V13.558C59.6561 11.974 60.4001 11.182 61.8881 11.182H62.2661C63.1301 11.182 63.7481 11.458 64.1201 12.01V11.362H66.1541ZM63.7421 17.644V13.27C63.7421 13.174 63.7061 13.09 63.6341 13.018C63.5741 12.946 63.4961 12.91 63.4001 12.91H62.4101C62.3141 12.91 62.2301 12.946 62.1581 13.018C62.0981 13.09 62.0681 13.174 62.0681 13.27V17.644C62.0681 17.74 62.0981 17.824 62.1581 17.896C62.2301 17.968 62.3141 18.004 62.4101 18.004H63.4001C63.4961 18.004 63.5741 17.968 63.6341 17.896C63.7061 17.824 63.7421 17.74 63.7421 17.644Z" fill="#1C64F2"/>
<path d="M71.5563 16.024V14.17H74.8863V18.454C74.8863 20.038 74.1423 20.83 72.6543 20.83H70.3863C68.8983 20.83 68.1543 20.038 68.1543 18.454V11.2C68.1543 9.616 68.8983 8.824 70.3863 8.824H72.6543C74.1423 8.824 74.8863 9.616 74.8863 11.2V12.298H72.4923V10.894C72.4923 10.798 72.4563 10.714 72.3843 10.642C72.3243 10.57 72.2463 10.534 72.1503 10.534H71.0163C70.9203 10.534 70.8363 10.57 70.7643 10.642C70.7043 10.714 70.6743 10.798 70.6743 10.894V18.742C70.6743 18.838 70.7043 18.922 70.7643 18.994C70.8363 19.066 70.9203 19.102 71.0163 19.102H72.1503C72.2463 19.102 72.3243 19.066 72.3843 18.994C72.4563 18.922 72.4923 18.838 72.4923 18.742V16.024H71.5563Z" fill="#111928"/>
<path d="M80.4514 11.686C81.9394 11.686 82.6834 12.478 82.6834 14.062V16.906H78.5974V18.742C78.5974 18.838 78.6274 18.922 78.6874 18.994C78.7594 19.066 78.8434 19.102 78.9394 19.102H79.9294C80.0254 19.102 80.1034 19.066 80.1634 18.994C80.2354 18.922 80.2714 18.838 80.2714 18.742V17.77H82.6834V18.454C82.6834 20.038 81.9394 20.83 80.4514 20.83H78.4174C76.9294 20.83 76.1854 20.038 76.1854 18.454V14.062C76.1854 12.478 76.9294 11.686 78.4174 11.686H80.4514ZM78.5974 15.322H80.2714V13.702C80.2714 13.606 80.2354 13.522 80.1634 13.45C80.1034 13.378 80.0254 13.342 79.9294 13.342H78.9394C78.8434 13.342 78.7594 13.378 78.6874 13.45C78.6274 13.522 78.5974 13.606 78.5974 13.702V15.322Z" fill="#111928"/>
<path d="M86.4197 20.65H84.0077V11.866H86.2037V12.316C86.5757 11.896 87.1397 11.686 87.8957 11.686H88.2737C89.7617 11.686 90.5057 12.478 90.5057 14.062V20.65H88.0937V13.774C88.0937 13.678 88.0577 13.594 87.9857 13.522C87.9257 13.45 87.8477 13.414 87.7517 13.414H86.7617C86.6657 13.414 86.5817 13.45 86.5097 13.522C86.4497 13.594 86.4197 13.678 86.4197 13.774V20.65Z" fill="#111928"/>
<path d="M94.5943 10.768C94.3423 11.02 94.0363 11.146 93.6763 11.146C93.3163 11.146 93.0043 11.02 92.7403 10.768C92.4763 10.504 92.3443 10.192 92.3443 9.832C92.3443 9.46 92.4763 9.148 92.7403 8.896C93.0043 8.632 93.3163 8.5 93.6763 8.5C94.0363 8.5 94.3423 8.632 94.5943 8.896C94.8583 9.148 94.9903 9.46 94.9903 9.832C94.9903 10.204 94.8583 10.516 94.5943 10.768ZM92.4703 20.65V11.866H94.8823V20.65H92.4703Z" fill="#111928"/>
<path d="M100.662 11.866H103.074V20.65H100.878V20.2C100.506 20.62 99.942 20.83 99.186 20.83H98.808C97.32 20.83 96.576 20.038 96.576 18.454V11.866H98.988V18.742C98.988 18.838 99.018 18.922 99.078 18.994C99.15 19.066 99.234 19.102 99.33 19.102H100.32C100.416 19.102 100.494 19.066 100.554 18.994C100.626 18.922 100.662 18.838 100.662 18.742V11.866Z" fill="#111928"/>
<path d="M108.855 15.142C110.343 15.142 111.087 15.934 111.087 17.518V18.454C111.087 20.038 110.343 20.83 108.855 20.83H106.857C105.369 20.83 104.625 20.038 104.625 18.454V17.896H106.857V18.688C106.857 18.784 106.887 18.868 106.947 18.94C107.019 19.012 107.103 19.048 107.199 19.048H108.675C108.771 19.048 108.849 19.012 108.909 18.94C108.981 18.868 109.017 18.784 109.017 18.688V17.608C109.017 17.512 108.981 17.428 108.909 17.356C108.849 17.284 108.771 17.248 108.675 17.248H106.821C105.333 17.248 104.589 16.456 104.589 14.872V14.062C104.589 12.478 105.333 11.686 106.821 11.686H108.711C110.199 11.686 110.943 12.478 110.943 14.062V14.386H108.711V13.828C108.711 13.732 108.675 13.648 108.603 13.576C108.543 13.504 108.465 13.468 108.369 13.468H107.001C106.905 13.468 106.821 13.504 106.749 13.576C106.689 13.648 106.659 13.732 106.659 13.828V14.782C106.659 14.878 106.689 14.962 106.749 15.034C106.821 15.106 106.905 15.142 107.001 15.142H108.855Z" fill="#111928"/>
</svg>
